:SAMPLES-PER-SECOND 30
:FULLY-SPECIFIED
:DEGREES
840
root  -3.92371 38.3194 14.2964 178.749 -77.4066 173.151
RightUpLeg  7.5454 -3.54076 -2.0739
RightLeg  25.5326 1.55173 0.581668
RightFoot  -22.8676 -0.242262 -0.865724
RightToes  2.32829e-010 0 -3.6325e-017
Spine  14.9169 -0.177044 12.5381
Spine1  6.46688 3.08715 -7.73975
HEad  -11.1352 3.17409 -10.2783
LeftShoulder1  0.158628 3.05169 -28.887
LeftArm  -6.64797 19.2341 -42.5145
LeftForeArm  28.5579 -7.53004 -7.33199
LeftHand  -0.0754217 6.99591 -2.46582
RightShoulder  -0.195186 -4.11314 24.368
RightArm  16.2657 18.8538 50.6742
RightForeArm  4.8667 10.5825 7.72454
RightHand  -0.50604 4.45725 -6.23551
LeftUpLeg  -15.513 2.30067 -0.802287
LeftLeg  -2.66886 -0.551433 -0.837948
LeftFoot  -5.39192 0.563439 -10.1837
LeftToes  -3.54706e-010 1.16038e-010 5.28031e-012
841
root  -2.69357 38.5736 14.513 179.005 -77.9213 172.536
RightUpLeg  5.99107 -4.21429 -2.09792
RightLeg  25.0637 1.63866 0.608396
RightFoot  -20.6208 -0.25639 -1.4434
RightToes  2.32829e-010 0 -3.6325e-017
Spine  15.5355 -0.542031 11.1068
Spine1  6.44132 2.11167 -5.67471
HEad  -10.1343 3.89404 -9.09591
LeftShoulder1  0.263376 2.75248 -29.0664
LeftArm  -4.96292 14.8554 -43.6673
LeftForeArm  29.8368 -6.195 -8.33653
LeftHand  -0.0678481 6.85298 -2.16837
RightShoulder  -0.143311 -3.94817 24.1208
RightArm  15.256 18.9902 51.3013
RightForeArm  7.51574 9.52797 7.72409
RightHand  -0.434042 4.13647 -5.56274
LeftUpLeg  -15.2406 2.22029 -0.745889
LeftLeg  0.20984 -0.278889 -0.543725
LeftFoot  -5.39634 0.509715 -9.17957
LeftToes  -3.54706e-010 1.16038e-010 5.28031e-012
842
root  -1.59327 38.8652 14.7178 -178.693 -78.6875 169.929
RightUpLeg  5.12 -5.38904 -2.72173
RightLeg  23.5817 2.09173 0.780595
RightFoot  -18.1912 -0.239198 -1.93612
RightToes  2.32829e-010 0 -3.6325e-017
Spine  15.4941 -0.817896 10.2511
Spine1  6.78437 1.57584 -4.93167
HEad  -9.6458 3.30559 -7.78594
LeftShoulder1  0.447878 2.20591 -28.338
LeftArm  -3.77718 9.59696 -45.1604
LeftForeArm  32.5176 -4.39997 -9.06692
LeftHand  -0.0853323 7.04558 -3.0349
RightShoulder  -0.171318 -4.03218 24.5833
RightArm  13.9412 17.229 51.3731
RightForeArm  7.44869 9.69563 7.28914
RightHand  -0.458857 3.82941 -6.03421
LeftUpLeg  -14.2512 2.23661 -0.942173
LeftLeg  3.65486 0.708128 -0.317713
LeftFoot  -5.52117 0.48242 -8.83036
LeftToes  -3.54706e-010 1.16038e-010 5.28031e-012
843
root  -0.58885 39.1659 14.9628 -175.571 -78.7654 167.015
RightUpLeg  3.99857 -5.72398 -3.26052
RightLeg  21.5127 2.22333 0.723795
RightFoot  -15.5882 -0.182265 -2.06033
RightToes  2.32829e-010 0 -3.6325e-017
Spine  15.3465 -0.843925 9.83528
Spine1  6.30814 1.43708 -4.74097
HEad  -9.33011 2.85522 -7.20214
LeftShoulder1  0.463534 2.17173 -28.6731
LeftArm  -2.5143 4.70561 -45.5878
LeftForeArm  34.3535 -3.87241 -9.75829
LeftHand  -0.0781382 7.03412 -2.57702
RightShoulder  -0.175547 -4.04947 24.3745
RightArm  12.8198 13.818 51.6469
RightForeArm  6.11106 10.2348 6.83399
RightHand  -0.453899 3.66276 -6.07012
LeftUpLeg  -12.9723 3.08309 -0.964928
LeftLeg  6.91625 1.19474 -0.241287
LeftFoot  -5.49859 0.445413 -8.07462
LeftToes  -3.54706e-010 1.16038e-010 5.28031e-012
844
root  0.334437 39.4175 15.2387 -173.191 -78.8378 164.752
RightUpLeg  3.20103 -6.3645 -3.84169
RightLeg  19.4234 2.91993 0.772636
RightFoot  -13.214 -0.120025 -1.84531
RightToes  2.32829e-010 0 -3.6325e-017
Spine  14.8753 -1.14183 10.1252
Spine1  6.12168 1.3417 -5.52637
HEad  -9.14987 3.16732 -6.96997
LeftShoulder1  0.445527 2.20702 -28.2229
LeftArm  -2.85644 0.766228 -46.9929
LeftForeArm  35.0495 -3.96505 -9.51939
LeftHand  -0.0460584 5.96694 -2.31925
RightShoulder  -0.190687 -4.09713 24.4617
RightArm  12.8734 10.3403 51.7667
RightForeArm  4.25486 10.8261 6.74716
RightHand  -0.492309 3.8537 -6.44072
LeftUpLeg  -11.3746 3.79417 -0.850115
LeftLeg  10.9146 0.824669 0.163956
LeftFoot  -5.83028 0.374126 -7.02739
LeftToes  -3.54706e-010 1.16038e-010 5.28031e-012
